<mxfile host="app.diagrams.net" modified="2024-03-21T00:57:01.198Z" agent="Mozilla/5.0 (Windows NT 10.0; Win64; x64) AppleWebKit/537.36 (KHTML, like Gecko) Chrome/122.0.0.0 Safari/537.36" etag="VgcF89ZOqipSdaCSrvD2" version="24.0.7" type="google" pages="2">
  <diagram name="Page-1" id="Z8BtTaobsv7Sza8ifyq8">
    <mxGraphModel dx="1221" dy="647" grid="1" gridSize="10" guides="1" tooltips="1" connect="1" arrows="1" fold="1" page="1" pageScale="1" pageWidth="850" pageHeight="1100" math="0" shadow="0">
      <root>
        <mxCell id="0" />
        <mxCell id="1" parent="0" />
        <mxCell id="SdUeN-HmFxUGmzNSR-si-4" value="ICategory" style="swimlane;fontStyle=0;childLayout=stackLayout;horizontal=1;startSize=30;horizontalStack=0;resizeParent=1;resizeParentMax=0;resizeLast=0;collapsible=1;marginBottom=0;whiteSpace=wrap;html=1;" parent="1" vertex="1">
          <mxGeometry x="370" y="290" width="140" height="60" as="geometry" />
        </mxCell>
        <mxCell id="SdUeN-HmFxUGmzNSR-si-5" value="increaseSalary" style="text;strokeColor=none;fillColor=none;align=left;verticalAlign=middle;spacingLeft=4;spacingRight=4;overflow=hidden;points=[[0,0.5],[1,0.5]];portConstraint=eastwest;rotatable=0;whiteSpace=wrap;html=1;" parent="SdUeN-HmFxUGmzNSR-si-4" vertex="1">
          <mxGeometry y="30" width="140" height="30" as="geometry" />
        </mxCell>
        <mxCell id="SdUeN-HmFxUGmzNSR-si-9" value="" style="endArrow=classic;html=1;rounded=0;entryX=0;entryY=0.5;entryDx=0;entryDy=0;" parent="1" target="SdUeN-HmFxUGmzNSR-si-4" edge="1">
          <mxGeometry width="50" height="50" relative="1" as="geometry">
            <mxPoint x="389.7368421052631" y="170" as="sourcePoint" />
            <mxPoint x="450" y="310" as="targetPoint" />
          </mxGeometry>
        </mxCell>
        <mxCell id="SdUeN-HmFxUGmzNSR-si-10" value="Actor" style="swimlane;fontStyle=0;childLayout=stackLayout;horizontal=1;startSize=30;horizontalStack=0;resizeParent=1;resizeParentMax=0;resizeLast=0;collapsible=1;marginBottom=0;whiteSpace=wrap;html=1;" parent="1" vertex="1">
          <mxGeometry x="610" y="100" width="140" height="120" as="geometry" />
        </mxCell>
        <mxCell id="SdUeN-HmFxUGmzNSR-si-11" value="salario (SalarioBase)" style="text;strokeColor=none;fillColor=none;align=left;verticalAlign=middle;spacingLeft=4;spacingRight=4;overflow=hidden;points=[[0,0.5],[1,0.5]];portConstraint=eastwest;rotatable=0;whiteSpace=wrap;html=1;" parent="SdUeN-HmFxUGmzNSR-si-10" vertex="1">
          <mxGeometry y="30" width="140" height="30" as="geometry" />
        </mxCell>
        <mxCell id="SdUeN-HmFxUGmzNSR-si-12" value="hoursrRecorded" style="text;strokeColor=none;fillColor=none;align=left;verticalAlign=middle;spacingLeft=4;spacingRight=4;overflow=hidden;points=[[0,0.5],[1,0.5]];portConstraint=eastwest;rotatable=0;whiteSpace=wrap;html=1;" parent="SdUeN-HmFxUGmzNSR-si-10" vertex="1">
          <mxGeometry y="60" width="140" height="30" as="geometry" />
        </mxCell>
        <mxCell id="SdUeN-HmFxUGmzNSR-si-13" value="+calcSalary()" style="text;strokeColor=none;fillColor=none;align=left;verticalAlign=middle;spacingLeft=4;spacingRight=4;overflow=hidden;points=[[0,0.5],[1,0.5]];portConstraint=eastwest;rotatable=0;whiteSpace=wrap;html=1;" parent="SdUeN-HmFxUGmzNSR-si-10" vertex="1">
          <mxGeometry y="90" width="140" height="30" as="geometry" />
        </mxCell>
        <mxCell id="SdUeN-HmFxUGmzNSR-si-14" style="edgeStyle=orthogonalEdgeStyle;rounded=0;orthogonalLoop=1;jettySize=auto;html=1;" parent="1" source="SdUeN-HmFxUGmzNSR-si-11" edge="1">
          <mxGeometry relative="1" as="geometry">
            <mxPoint x="480" y="130" as="targetPoint" />
          </mxGeometry>
        </mxCell>
        <mxCell id="SdUeN-HmFxUGmzNSR-si-16" value="Adult" style="swimlane;fontStyle=0;childLayout=stackLayout;horizontal=1;startSize=30;horizontalStack=0;resizeParent=1;resizeParentMax=0;resizeLast=0;collapsible=1;marginBottom=0;whiteSpace=wrap;html=1;" parent="1" vertex="1">
          <mxGeometry y="450" width="140" height="60" as="geometry" />
        </mxCell>
        <mxCell id="SdUeN-HmFxUGmzNSR-si-17" value="increaseSalary()" style="text;strokeColor=none;fillColor=none;align=left;verticalAlign=middle;spacingLeft=4;spacingRight=4;overflow=hidden;points=[[0,0.5],[1,0.5]];portConstraint=eastwest;rotatable=0;whiteSpace=wrap;html=1;" parent="SdUeN-HmFxUGmzNSR-si-16" vertex="1">
          <mxGeometry y="30" width="140" height="30" as="geometry" />
        </mxCell>
        <mxCell id="SdUeN-HmFxUGmzNSR-si-27" style="edgeStyle=orthogonalEdgeStyle;rounded=0;orthogonalLoop=1;jettySize=auto;html=1;" parent="1" source="SdUeN-HmFxUGmzNSR-si-18" target="SdUeN-HmFxUGmzNSR-si-5" edge="1">
          <mxGeometry relative="1" as="geometry" />
        </mxCell>
        <mxCell id="SdUeN-HmFxUGmzNSR-si-18" value="Horror" style="swimlane;fontStyle=0;childLayout=stackLayout;horizontal=1;startSize=30;horizontalStack=0;resizeParent=1;resizeParentMax=0;resizeLast=0;collapsible=1;marginBottom=0;whiteSpace=wrap;html=1;" parent="1" vertex="1">
          <mxGeometry x="400" y="450" width="140" height="60" as="geometry" />
        </mxCell>
        <mxCell id="SdUeN-HmFxUGmzNSR-si-19" value="increaseSalary()" style="text;strokeColor=none;fillColor=none;align=left;verticalAlign=middle;spacingLeft=4;spacingRight=4;overflow=hidden;points=[[0,0.5],[1,0.5]];portConstraint=eastwest;rotatable=0;whiteSpace=wrap;html=1;" parent="SdUeN-HmFxUGmzNSR-si-18" vertex="1">
          <mxGeometry y="30" width="140" height="30" as="geometry" />
        </mxCell>
        <mxCell id="SdUeN-HmFxUGmzNSR-si-28" style="edgeStyle=orthogonalEdgeStyle;rounded=0;orthogonalLoop=1;jettySize=auto;html=1;" parent="1" source="SdUeN-HmFxUGmzNSR-si-21" target="SdUeN-HmFxUGmzNSR-si-5" edge="1">
          <mxGeometry relative="1" as="geometry" />
        </mxCell>
        <mxCell id="SdUeN-HmFxUGmzNSR-si-21" value="Action" style="swimlane;fontStyle=0;childLayout=stackLayout;horizontal=1;startSize=30;horizontalStack=0;resizeParent=1;resizeParentMax=0;resizeLast=0;collapsible=1;marginBottom=0;whiteSpace=wrap;html=1;" parent="1" vertex="1">
          <mxGeometry x="570" y="450" width="140" height="60" as="geometry" />
        </mxCell>
        <mxCell id="SdUeN-HmFxUGmzNSR-si-22" value="increaseSalary()" style="text;strokeColor=none;fillColor=none;align=left;verticalAlign=middle;spacingLeft=4;spacingRight=4;overflow=hidden;points=[[0,0.5],[1,0.5]];portConstraint=eastwest;rotatable=0;whiteSpace=wrap;html=1;" parent="SdUeN-HmFxUGmzNSR-si-21" vertex="1">
          <mxGeometry y="30" width="140" height="30" as="geometry" />
        </mxCell>
        <mxCell id="SdUeN-HmFxUGmzNSR-si-26" style="edgeStyle=orthogonalEdgeStyle;rounded=0;orthogonalLoop=1;jettySize=auto;html=1;" parent="1" source="SdUeN-HmFxUGmzNSR-si-23" target="SdUeN-HmFxUGmzNSR-si-5" edge="1">
          <mxGeometry relative="1" as="geometry" />
        </mxCell>
        <mxCell id="SdUeN-HmFxUGmzNSR-si-23" value="KIds" style="swimlane;fontStyle=0;childLayout=stackLayout;horizontal=1;startSize=30;horizontalStack=0;resizeParent=1;resizeParentMax=0;resizeLast=0;collapsible=1;marginBottom=0;whiteSpace=wrap;html=1;" parent="1" vertex="1">
          <mxGeometry x="190" y="450" width="140" height="60" as="geometry" />
        </mxCell>
        <mxCell id="SdUeN-HmFxUGmzNSR-si-24" value="increaseSalary()" style="text;strokeColor=none;fillColor=none;align=left;verticalAlign=middle;spacingLeft=4;spacingRight=4;overflow=hidden;points=[[0,0.5],[1,0.5]];portConstraint=eastwest;rotatable=0;whiteSpace=wrap;html=1;" parent="SdUeN-HmFxUGmzNSR-si-23" vertex="1">
          <mxGeometry y="30" width="140" height="30" as="geometry" />
        </mxCell>
        <mxCell id="SdUeN-HmFxUGmzNSR-si-25" style="edgeStyle=orthogonalEdgeStyle;rounded=0;orthogonalLoop=1;jettySize=auto;html=1;entryX=0.29;entryY=0.044;entryDx=0;entryDy=0;entryPerimeter=0;" parent="1" source="SdUeN-HmFxUGmzNSR-si-16" target="SdUeN-HmFxUGmzNSR-si-5" edge="1">
          <mxGeometry relative="1" as="geometry" />
        </mxCell>
        <mxCell id="SdUeN-HmFxUGmzNSR-si-30" value="Movie" style="swimlane;fontStyle=0;childLayout=stackLayout;horizontal=1;startSize=30;horizontalStack=0;resizeParent=1;resizeParentMax=0;resizeLast=0;collapsible=1;marginBottom=0;whiteSpace=wrap;html=1;" parent="1" vertex="1">
          <mxGeometry x="350" y="50" width="140" height="120" as="geometry" />
        </mxCell>
        <mxCell id="SdUeN-HmFxUGmzNSR-si-31" value="baseSalary()" style="text;strokeColor=none;fillColor=none;align=left;verticalAlign=middle;spacingLeft=4;spacingRight=4;overflow=hidden;points=[[0,0.5],[1,0.5]];portConstraint=eastwest;rotatable=0;whiteSpace=wrap;html=1;" parent="SdUeN-HmFxUGmzNSR-si-30" vertex="1">
          <mxGeometry y="30" width="140" height="30" as="geometry" />
        </mxCell>
        <mxCell id="SdUeN-HmFxUGmzNSR-si-32" value="category: ICategory" style="text;strokeColor=none;fillColor=none;align=left;verticalAlign=middle;spacingLeft=4;spacingRight=4;overflow=hidden;points=[[0,0.5],[1,0.5]];portConstraint=eastwest;rotatable=0;whiteSpace=wrap;html=1;" parent="SdUeN-HmFxUGmzNSR-si-30" vertex="1">
          <mxGeometry y="60" width="140" height="30" as="geometry" />
        </mxCell>
        <mxCell id="SdUeN-HmFxUGmzNSR-si-33" value="Item 3" style="text;strokeColor=none;fillColor=none;align=left;verticalAlign=middle;spacingLeft=4;spacingRight=4;overflow=hidden;points=[[0,0.5],[1,0.5]];portConstraint=eastwest;rotatable=0;whiteSpace=wrap;html=1;" parent="SdUeN-HmFxUGmzNSR-si-30" vertex="1">
          <mxGeometry y="90" width="140" height="30" as="geometry" />
        </mxCell>
        <mxCell id="SdUeN-HmFxUGmzNSR-si-34" value="Director" style="swimlane;fontStyle=0;childLayout=stackLayout;horizontal=1;startSize=30;horizontalStack=0;resizeParent=1;resizeParentMax=0;resizeLast=0;collapsible=1;marginBottom=0;whiteSpace=wrap;html=1;" parent="1" vertex="1">
          <mxGeometry x="40" y="65" width="140" height="120" as="geometry" />
        </mxCell>
        <mxCell id="SdUeN-HmFxUGmzNSR-si-35" value="Director(BaseSalary)" style="text;strokeColor=none;fillColor=none;align=left;verticalAlign=middle;spacingLeft=4;spacingRight=4;overflow=hidden;points=[[0,0.5],[1,0.5]];portConstraint=eastwest;rotatable=0;whiteSpace=wrap;html=1;" parent="SdUeN-HmFxUGmzNSR-si-34" vertex="1">
          <mxGeometry y="30" width="140" height="30" as="geometry" />
        </mxCell>
        <mxCell id="SdUeN-HmFxUGmzNSR-si-36" value="calcSalary()" style="text;strokeColor=none;fillColor=none;align=left;verticalAlign=middle;spacingLeft=4;spacingRight=4;overflow=hidden;points=[[0,0.5],[1,0.5]];portConstraint=eastwest;rotatable=0;whiteSpace=wrap;html=1;" parent="SdUeN-HmFxUGmzNSR-si-34" vertex="1">
          <mxGeometry y="60" width="140" height="30" as="geometry" />
        </mxCell>
        <mxCell id="SdUeN-HmFxUGmzNSR-si-37" value="Item 3" style="text;strokeColor=none;fillColor=none;align=left;verticalAlign=middle;spacingLeft=4;spacingRight=4;overflow=hidden;points=[[0,0.5],[1,0.5]];portConstraint=eastwest;rotatable=0;whiteSpace=wrap;html=1;" parent="SdUeN-HmFxUGmzNSR-si-34" vertex="1">
          <mxGeometry y="90" width="140" height="30" as="geometry" />
        </mxCell>
        <mxCell id="SdUeN-HmFxUGmzNSR-si-38" style="edgeStyle=orthogonalEdgeStyle;rounded=0;orthogonalLoop=1;jettySize=auto;html=1;" parent="1" source="SdUeN-HmFxUGmzNSR-si-35" target="SdUeN-HmFxUGmzNSR-si-30" edge="1">
          <mxGeometry relative="1" as="geometry" />
        </mxCell>
      </root>
    </mxGraphModel>
  </diagram>
  <diagram id="G3zhX6XlhNaywV6kssxK" name="Page-2">
    <mxGraphModel grid="1" page="1" gridSize="10" guides="1" tooltips="1" connect="1" arrows="1" fold="1" pageScale="1" pageWidth="850" pageHeight="1100" math="0" shadow="0">
      <root>
        <mxCell id="0" />
        <mxCell id="1" parent="0" />
        <mxCell id="hu4UldPf7B8A1fzGlRal-1" value="Category" style="swimlane;fontStyle=0;childLayout=stackLayout;horizontal=1;startSize=30;horizontalStack=0;resizeParent=1;resizeParentMax=0;resizeLast=0;collapsible=1;marginBottom=0;whiteSpace=wrap;html=1;" vertex="1" parent="1">
          <mxGeometry x="210" y="60" width="140" height="90" as="geometry" />
        </mxCell>
        <mxCell id="hu4UldPf7B8A1fzGlRal-2" value="Name" style="text;strokeColor=none;fillColor=none;align=left;verticalAlign=middle;spacingLeft=4;spacingRight=4;overflow=hidden;points=[[0,0.5],[1,0.5]];portConstraint=eastwest;rotatable=0;whiteSpace=wrap;html=1;" vertex="1" parent="hu4UldPf7B8A1fzGlRal-1">
          <mxGeometry y="30" width="140" height="30" as="geometry" />
        </mxCell>
        <mxCell id="hu4UldPf7B8A1fzGlRal-4" value="+getCtegory()" style="text;strokeColor=none;fillColor=none;align=left;verticalAlign=middle;spacingLeft=4;spacingRight=4;overflow=hidden;points=[[0,0.5],[1,0.5]];portConstraint=eastwest;rotatable=0;whiteSpace=wrap;html=1;" vertex="1" parent="hu4UldPf7B8A1fzGlRal-1">
          <mxGeometry y="60" width="140" height="30" as="geometry" />
        </mxCell>
        <mxCell id="hu4UldPf7B8A1fzGlRal-5" value="Award (Composite)" style="swimlane;fontStyle=0;childLayout=stackLayout;horizontal=1;startSize=30;horizontalStack=0;resizeParent=1;resizeParentMax=0;resizeLast=0;collapsible=1;marginBottom=0;whiteSpace=wrap;html=1;" vertex="1" parent="1">
          <mxGeometry x="-19" y="365" width="290" height="170" as="geometry">
            <mxRectangle x="230" y="290" width="100" height="30" as="alternateBounds" />
          </mxGeometry>
        </mxCell>
        <mxCell id="hu4UldPf7B8A1fzGlRal-6" value="Categories &amp;lt;ListCategory&amp;gt;" style="text;strokeColor=none;fillColor=none;align=left;verticalAlign=middle;spacingLeft=4;spacingRight=4;overflow=hidden;points=[[0,0.5],[1,0.5]];portConstraint=eastwest;rotatable=0;whiteSpace=wrap;html=1;" vertex="1" parent="hu4UldPf7B8A1fzGlRal-5">
          <mxGeometry y="30" width="290" height="30" as="geometry" />
        </mxCell>
        <mxCell id="hu4UldPf7B8A1fzGlRal-7" value="Award(Name)" style="text;strokeColor=none;fillColor=none;align=left;verticalAlign=middle;spacingLeft=4;spacingRight=4;overflow=hidden;points=[[0,0.5],[1,0.5]];portConstraint=eastwest;rotatable=0;whiteSpace=wrap;html=1;" vertex="1" parent="hu4UldPf7B8A1fzGlRal-5">
          <mxGeometry y="60" width="290" height="30" as="geometry" />
        </mxCell>
        <mxCell id="hu4UldPf7B8A1fzGlRal-8" value="&lt;div&gt;&lt;br&gt;&lt;/div&gt;&lt;div&gt;+getCategory()&lt;/div&gt;&lt;div&gt;&lt;br&gt;&lt;/div&gt;&lt;div&gt;+AddCategory()&lt;/div&gt;" style="text;strokeColor=none;fillColor=none;align=left;verticalAlign=middle;spacingLeft=4;spacingRight=4;overflow=hidden;points=[[0,0.5],[1,0.5]];portConstraint=eastwest;rotatable=0;whiteSpace=wrap;html=1;" vertex="1" parent="hu4UldPf7B8A1fzGlRal-5">
          <mxGeometry y="90" width="290" height="80" as="geometry" />
        </mxCell>
        <mxCell id="hu4UldPf7B8A1fzGlRal-10" style="edgeStyle=orthogonalEdgeStyle;rounded=0;orthogonalLoop=1;jettySize=auto;html=1;entryX=0.607;entryY=0.97;entryDx=0;entryDy=0;entryPerimeter=0;" edge="1" parent="1" source="hu4UldPf7B8A1fzGlRal-5" target="hu4UldPf7B8A1fzGlRal-4">
          <mxGeometry relative="1" as="geometry" />
        </mxCell>
        <mxCell id="hu4UldPf7B8A1fzGlRal-11" value="Streaming" style="swimlane;fontStyle=0;childLayout=stackLayout;horizontal=1;startSize=30;horizontalStack=0;resizeParent=1;resizeParentMax=0;resizeLast=0;collapsible=1;marginBottom=0;whiteSpace=wrap;html=1;" vertex="1" parent="1">
          <mxGeometry x="-260" y="50" width="250" height="90" as="geometry" />
        </mxCell>
        <mxCell id="hu4UldPf7B8A1fzGlRal-12" value="- catalog: Categories&amp;nbsp;" style="text;strokeColor=none;fillColor=none;align=left;verticalAlign=middle;spacingLeft=4;spacingRight=4;overflow=hidden;points=[[0,0.5],[1,0.5]];portConstraint=eastwest;rotatable=0;whiteSpace=wrap;html=1;" vertex="1" parent="hu4UldPf7B8A1fzGlRal-11">
          <mxGeometry y="30" width="250" height="30" as="geometry" />
        </mxCell>
        <mxCell id="hu4UldPf7B8A1fzGlRal-13" value="getCatalog()" style="text;strokeColor=none;fillColor=none;align=left;verticalAlign=middle;spacingLeft=4;spacingRight=4;overflow=hidden;points=[[0,0.5],[1,0.5]];portConstraint=eastwest;rotatable=0;whiteSpace=wrap;html=1;" vertex="1" parent="hu4UldPf7B8A1fzGlRal-11">
          <mxGeometry y="60" width="250" height="30" as="geometry" />
        </mxCell>
        <mxCell id="hu4UldPf7B8A1fzGlRal-19" style="edgeStyle=orthogonalEdgeStyle;rounded=0;orthogonalLoop=1;jettySize=auto;html=1;" edge="1" parent="1" source="hu4UldPf7B8A1fzGlRal-15">
          <mxGeometry relative="1" as="geometry">
            <mxPoint x="350" y="135" as="targetPoint" />
          </mxGeometry>
        </mxCell>
        <mxCell id="hu4UldPf7B8A1fzGlRal-15" value="Movie" style="swimlane;fontStyle=0;childLayout=stackLayout;horizontal=1;startSize=30;horizontalStack=0;resizeParent=1;resizeParentMax=0;resizeLast=0;collapsible=1;marginBottom=0;whiteSpace=wrap;html=1;" vertex="1" parent="1">
          <mxGeometry x="500" y="390" width="300" height="120" as="geometry" />
        </mxCell>
        <mxCell id="hu4UldPf7B8A1fzGlRal-16" value="Stars" style="text;strokeColor=none;fillColor=none;align=left;verticalAlign=middle;spacingLeft=4;spacingRight=4;overflow=hidden;points=[[0,0.5],[1,0.5]];portConstraint=eastwest;rotatable=0;whiteSpace=wrap;html=1;" vertex="1" parent="hu4UldPf7B8A1fzGlRal-15">
          <mxGeometry y="30" width="300" height="30" as="geometry" />
        </mxCell>
        <mxCell id="hu4UldPf7B8A1fzGlRal-17" value="Movie(string name int Stars)" style="text;strokeColor=none;fillColor=none;align=left;verticalAlign=middle;spacingLeft=4;spacingRight=4;overflow=hidden;points=[[0,0.5],[1,0.5]];portConstraint=eastwest;rotatable=0;whiteSpace=wrap;html=1;" vertex="1" parent="hu4UldPf7B8A1fzGlRal-15">
          <mxGeometry y="60" width="300" height="30" as="geometry" />
        </mxCell>
        <mxCell id="hu4UldPf7B8A1fzGlRal-18" value="+getCategory()" style="text;strokeColor=none;fillColor=none;align=left;verticalAlign=middle;spacingLeft=4;spacingRight=4;overflow=hidden;points=[[0,0.5],[1,0.5]];portConstraint=eastwest;rotatable=0;whiteSpace=wrap;html=1;" vertex="1" parent="hu4UldPf7B8A1fzGlRal-15">
          <mxGeometry y="90" width="300" height="30" as="geometry" />
        </mxCell>
        <mxCell id="hu4UldPf7B8A1fzGlRal-21" value="" style="endArrow=none;html=1;rounded=0;entryX=0;entryY=1;entryDx=0;entryDy=0;entryPerimeter=0;exitX=0.985;exitY=-0.037;exitDx=0;exitDy=0;exitPerimeter=0;" edge="1" parent="1" source="hu4UldPf7B8A1fzGlRal-13" target="hu4UldPf7B8A1fzGlRal-2">
          <mxGeometry width="50" height="50" relative="1" as="geometry">
            <mxPoint x="200" y="360" as="sourcePoint" />
            <mxPoint x="250" y="310" as="targetPoint" />
          </mxGeometry>
        </mxCell>
        <mxCell id="hu4UldPf7B8A1fzGlRal-24" style="edgeStyle=orthogonalEdgeStyle;rounded=0;orthogonalLoop=1;jettySize=auto;html=1;entryX=0;entryY=0.5;entryDx=0;entryDy=0;" edge="1" parent="1" source="hu4UldPf7B8A1fzGlRal-22" target="hu4UldPf7B8A1fzGlRal-7">
          <mxGeometry relative="1" as="geometry" />
        </mxCell>
        <mxCell id="hu4UldPf7B8A1fzGlRal-22" value="Composite" style="rounded=0;whiteSpace=wrap;html=1;" vertex="1" parent="1">
          <mxGeometry x="-310" y="410" width="120" height="60" as="geometry" />
        </mxCell>
      </root>
    </mxGraphModel>
  </diagram>
</mxfile>
